<?xml version="1.0" encoding="UTF-8"?>
<svg version="1.1" xmlns="http://www.w3.org/2000/svg" width="256" height="261">
<path d="M0 0 C7.24486551 -0.02526739 14.48971974 -0.0428318 21.73461914 -0.05493164 C24.20142033 -0.05997356 26.66821852 -0.06680691 29.13500977 -0.07543945 C32.67204529 -0.08751125 36.20904145 -0.09322956 39.74609375 -0.09765625 C40.85649521 -0.10281754 41.96689667 -0.10797882 43.11094666 -0.11329651 C44.64242088 -0.11340981 44.64242088 -0.11340981 46.20483398 -0.11352539 C47.10862289 -0.115746 48.0124118 -0.11796661 48.94358826 -0.12025452 C51 -0 51 -0 52 1 C52.29928809 2.9946903 52.53935637 4.99833124 52.75390625 7.00390625 C52.88603516 8.21884766 53.01816406 9.43378906 53.15429688 10.68554688 C53.28900391 11.96494141 53.42371094 13.24433594 53.5625 14.5625 C53.77036133 16.48739258 53.77036133 16.48739258 53.98242188 18.45117188 C54.32552144 21.63371616 54.66452788 24.81664414 55 28 C56.00675781 28.25652344 57.01351562 28.51304688 58.05078125 28.77734375 C79.72624617 34.56616749 98.34873866 44.9626838 115.0625 59.875 C115.67714111 60.4102832 116.29178223 60.94556641 116.92504883 61.49707031 C118.59765625 63.0546875 118.59765625 63.0546875 121 66 C120.87109375 68.8828125 120.87109375 68.8828125 120 71 C114.30685871 70.37571118 109.44772684 68.31123275 104.1875 66.1875 C72.73566011 53.8502657 35.28583879 52.19297516 3.73828125 65.31640625 C-7.97157593 70.46583036 -17.61732215 77.38247426 -27 86 C-27.82371094 86.74121094 -28.64742188 87.48242188 -29.49609375 88.24609375 C-44.50747053 102.42495051 -56.70252487 124.48791335 -57.95703125 145.33984375 C-57.97121094 145.88769531 -57.98539062 146.43554688 -58 147 C-58.66 147 -59.32 147 -60 147 C-60.22615579 155.99597473 -59.97231214 164.79613708 -59.0625 173.75 C-58.93222412 175.03535645 -58.93222412 175.03535645 -58.79931641 176.34667969 C-58.40680024 179.98743041 -57.95137646 183.45735483 -57 187 C-56.89042969 186.27039063 -56.78085938 185.54078125 -56.66796875 184.7890625 C-56.32497693 182.53033591 -55.97527647 180.27262385 -55.62109375 178.015625 C-55.19191034 175.27915702 -54.79367703 172.54008769 -54.41015625 169.796875 C-50.53648536 143.19548813 -39.93257529 118.60855524 -24 97 C-21.51041297 97.37842795 -20.26440634 97.72878564 -18.48291016 99.55615234 C-17.76820557 100.560896 -17.76820557 100.560896 -17.0390625 101.5859375 C-16.4920166 102.34269775 -15.9449707 103.09945801 -15.38134766 103.87915039 C-14.80175293 104.70278076 -14.2221582 105.52641113 -13.625 106.375 C-12.37522322 108.11083782 -11.12521652 109.84651012 -9.875 111.58203125 C-9.235625 112.47744629 -8.59625 113.37286133 -7.9375 114.29541016 C-4.86966435 118.57785514 -1.74957882 122.82136311 1.375 127.0625 C1.96063721 127.85930176 2.54627441 128.65610352 3.1496582 129.47705078 C6.78575734 134.40772346 10.51429882 139.23049231 14.37890625 143.984375 C21 152.21686747 21 152.21686747 21 155 C21.66 155 22.32 155 23 155 C23.25007812 154.45859375 23.50015625 153.9171875 23.7578125 153.359375 C28.45963152 144.42887597 35.19965407 136.33008844 41.27490234 128.29589844 C45.64365814 122.50843006 49.88857594 116.63762226 54.1171875 110.74731445 C58.43155917 104.75187495 62.84084702 98.83263567 67.30664062 92.94921875 C69.87307518 89.61584877 69.87307518 89.61584877 72 86 C85.2 86 98.4 86 112 86 C105 97 105 97 101 102 C100.34 102 99.68 102 99 102 C98.77054688 102.69480469 98.54109375 103.38960938 98.3046875 104.10546875 C96.72553781 107.60891163 94.53850356 110.36270912 92.125 113.3125 C91.12474694 114.55995253 90.1261074 115.8087002 89.12890625 117.05859375 C88.61215332 117.70554199 88.09540039 118.35249023 87.56298828 119.01904297 C85.00498146 122.26110285 82.5318702 125.56520026 80.0625 128.875 C79.56298828 129.54402344 79.06347656 130.21304688 78.54882812 130.90234375 C77.53460178 132.26158932 76.52076699 133.62112714 75.50732422 134.98095703 C74.03133096 136.95803255 72.5500126 138.93097641 71.06640625 140.90234375 C65.62608059 148.13288138 60.2308811 155.39415441 54.875 162.6875 C50.90983748 168.08621714 46.91860777 173.45757279 42.8125 178.75 C39.12073741 183.51494939 35.50655404 188.32992654 31.9375 193.1875 C31.45966064 193.8362207 30.98182129 194.48494141 30.48950195 195.15332031 C28.0479713 198.45296893 28.0479713 198.45296893 26 202 C25.34 202 24.68 202 24 202 C23.67 202.99 23.34 203.98 23 205 C19.05015133 202.08480196 16.24783333 198.98759861 13.3125 195.0625 C12.42852321 193.89052106 11.54440485 192.71864888 10.66015625 191.546875 C10.21559082 190.95326172 9.77102539 190.35964844 9.31298828 189.74804688 C7.31361661 187.08618351 5.28155808 184.44984393 3.25 181.8125 C2.85111572 181.29349121 2.45223145 180.77448242 2.04125977 180.23974609 C-2.28077693 174.62051218 -6.63991699 169.03007844 -11.00292969 163.44262695 C-14.72426998 158.66911564 -18.3861453 153.85539924 -22 149 C-23.8592769 151.78891535 -24.4016123 153.11996389 -25.03515625 156.28125 C-25.2043457 157.11809326 -25.37353516 157.95493652 -25.54785156 158.81713867 C-25.80260254 160.14515503 -25.80260254 160.14515503 -26.0625 161.5 C-26.2387793 162.40403564 -26.41505859 163.30807129 -26.59667969 164.23950195 C-31.42248406 189.62514868 -28.26808312 214.39493176 -18.171875 238.0859375 C-17 241 -17 241 -17 243 C-16.34 243.33 -15.68 243.66 -15 244 C-13.94517743 245.75994852 -12.95367383 247.55825135 -12 249.375 C-10.42464946 252.36028927 -8.87398299 255.18902551 -7 258 C-7 258.99 -7 259.98 -7 261 C-27.38036482 258.99795533 -46.65021774 247.00660722 -62 234 C-62.51256348 233.56574707 -63.02512695 233.13149414 -63.55322266 232.68408203 C-84.35161094 214.86712155 -97.26109391 192.68077617 -103 166 C-103.07041504 164.98784424 -103.14083008 163.97568848 -103.21337891 162.93286133 C-103.72259726 159.81873323 -103.72259726 159.81873323 -106.40844727 158.21728516 C-107.45057373 157.74597168 -108.4927002 157.2746582 -109.56640625 156.7890625 C-111.2534668 156.00595703 -111.2534668 156.00595703 -112.97460938 155.20703125 C-114.75061523 154.42392578 -114.75061523 154.42392578 -116.5625 153.625 C-117.75037109 153.07972656 -118.93824219 152.53445312 -120.16210938 151.97265625 C-123.09945032 150.62784955 -126.04477575 149.30492066 -129 148 C-128.56273175 138.01868293 -126.94675604 128.46946155 -124.98876953 118.69335938 C-124.49277848 116.21389962 -124.00929577 113.73222314 -123.52734375 111.25 C-123.21686128 109.67173409 -122.90568996 108.09360349 -122.59375 106.515625 C-122.44893188 105.77411194 -122.30411377 105.03259888 -122.15490723 104.26861572 C-121.11604407 99.11604407 -121.11604407 99.11604407 -120 98 C-113.79148497 97.81093913 -107.78608756 98.20993438 -101.625 98.9375 C-100.83222656 99.02451172 -100.03945312 99.11152344 -99.22265625 99.20117188 C-96.0101324 99.5680845 -93.07617628 99.97460791 -90 101 C-89.75121094 100.13375 -89.50242188 99.2675 -89.24609375 98.375 C-87.92356162 94.79296941 -86.24646958 92.12344253 -84.0625 89 C-82.68191187 87.01814638 -81.32701669 85.01811647 -80 83 C-79.34515625 82.02546875 -78.6903125 81.0509375 -78.015625 80.046875 C-76.60421149 76.92014526 -76.60421149 76.92014526 -78.38671875 73.640625 C-79.12932251 72.49428836 -79.89737521 71.36411437 -80.6875 70.25 C-81.06583984 69.67378906 -81.44417969 69.09757812 -81.83398438 68.50390625 C-83.40976606 66.13609419 -84.98590064 64.01409936 -87 62 C-87.77628803 60.75739054 -88.50174094 59.48227253 -89.1875 58.1875 C-89.55230469 57.52105469 -89.91710937 56.85460938 -90.29296875 56.16796875 C-91.23768213 53.27119568 -91.06122078 51.86087435 -90 49 C-87.76953125 46.7109375 -87.76953125 46.7109375 -84.8125 44.375 C-84.2880127 43.95476563 -83.76352539 43.53453125 -83.22314453 43.1015625 C-81.49247081 41.72067881 -79.74733835 40.3597196 -78 39 C-76.71954743 37.99282875 -75.43960698 36.98500612 -74.16015625 35.9765625 C-72.29269586 34.50577942 -70.42352673 33.03768903 -68.54614258 31.57958984 C-66.25604194 29.79916328 -64.05351685 28.05351685 -62 26 C-59.91746733 24.69528073 -57.80206742 23.45743436 -55.6796875 22.21875 C-55.12539062 21.8165625 -54.57109375 21.414375 -54 21 C-54 20.34 -54 19.68 -54 19 C-48.80546349 20.41669178 -45.33817117 23.92108191 -42 28 C-42 28.66 -42 29.32 -42 30 C-41.34 30 -40.68 30 -40 30 C-40 30.66 -40 31.32 -40 32 C-39.34 32 -38.68 32 -38 32 C-36.375 33.375 -36.375 33.375 -35 35 C-35 35.66 -35 36.32 -35 37 C-34.34 37 -33.68 37 -33 37 C-32.67 37.66 -32.34 38.32 -32 39 C-28.15779826 37.88778371 -24.7257384 36.39509774 -21.1875 34.5625 C-15.2747496 31.54815666 -9.70034912 29 -3 29 C-2.92652344 27.74509766 -2.92652344 27.74509766 -2.8515625 26.46484375 C-2.77679688 25.30082031 -2.70203125 24.13679688 -2.625 22.9375 C-2.55539063 21.81214844 -2.48578125 20.68679687 -2.4140625 19.52734375 C-1.90065255 12.99024667 -0.89873262 6.49336956 0 0 Z " fill="#FFFFFF" transform="translate(135,0)"/>
<path d="M0 0 C2 1 2 1 2 1 Z " fill="#FFFFFF" transform="translate(72,240)"/>
<path d="" fill="#FFFFFF" transform="translate(0,0)"/>
<path d="M0 0 C2 1 2 1 2 1 Z " fill="#FFFFFF" transform="translate(130,174)"/>
<path d="" fill="#FFFFFF" transform="translate(0,0)"/>
<path d="M0 0 C2 1 2 1 2 1 Z " fill="#FFFFFF" transform="translate(27,159)"/>
<path d="M0 0 C2 1 2 1 2 1 Z " fill="#FFFFFF" transform="translate(25,158)"/>
<path d="" fill="#FFFFFF" transform="translate(0,0)"/>
<path d="" fill="#FFFFFF" transform="translate(0,0)"/>
<path d="M0 0 C2 1 2 1 2 1 Z " fill="#FFFFFF" transform="translate(48,65)"/>
<path d="M0 0 C2 1 2 1 2 1 Z " fill="#FFFFFF" transform="translate(224,62)"/>
<path d="M0 0 C2 1 2 1 2 1 Z " fill="#FFFFFF" transform="translate(166,58)"/>
<path d="M0 0 C2 1 2 1 2 1 Z " fill="#FFFFFF" transform="translate(179,57)"/>
<path d="M0 0 C2 1 2 1 2 1 Z " fill="#FFFFFF" transform="translate(125,28)"/>
<path d="" fill="#FFFFFF" transform="translate(0,0)"/>
<path d="" fill="#FFFFFF" transform="translate(0,0)"/>
<path d="" fill="#FFFFFF" transform="translate(0,0)"/>
<path d="" fill="#FFFFFF" transform="translate(0,0)"/>
<path d="" fill="#FFFFFF" transform="translate(0,0)"/>
<path d="" fill="#FFFFFF" transform="translate(0,0)"/>
<path d="" fill="#FFFFFF" transform="translate(0,0)"/>
<path d="" fill="#FFFFFF" transform="translate(0,0)"/>
<path d="" fill="#FFFFFF" transform="translate(0,0)"/>
<path d="" fill="#FFFFFF" transform="translate(0,0)"/>
<path d="" fill="#FFFFFF" transform="translate(0,0)"/>
<path d="" fill="#FFFFFF" transform="translate(0,0)"/>
<path d="" fill="#FFFFFF" transform="translate(0,0)"/>
<path d="" fill="#FFFFFF" transform="translate(0,0)"/>
<path d="" fill="#FFFFFF" transform="translate(0,0)"/>
<path d="" fill="#FFFFFF" transform="translate(0,0)"/>
<path d="" fill="#FFFFFF" transform="translate(0,0)"/>
<path d="" fill="#FFFFFF" transform="translate(0,0)"/>
<path d="" fill="#FFFFFF" transform="translate(0,0)"/>
<path d="" fill="#FFFFFF" transform="translate(0,0)"/>
<path d="" fill="#FFFFFF" transform="translate(0,0)"/>
<path d="" fill="#FFFFFF" transform="translate(0,0)"/>
<path d="" fill="#FFFFFF" transform="translate(0,0)"/>
<path d="" fill="#FFFFFF" transform="translate(0,0)"/>
<path d="" fill="#FFFFFF" transform="translate(0,0)"/>
<path d="" fill="#FFFFFF" transform="translate(0,0)"/>
<path d="" fill="#FFFFFF" transform="translate(0,0)"/>
<path d="" fill="#FFFFFF" transform="translate(0,0)"/>
<path d="" fill="#FFFFFF" transform="translate(0,0)"/>
<path d="" fill="#FFFFFF" transform="translate(0,0)"/>
<path d="" fill="#FFFFFF" transform="translate(0,0)"/>
<path d="" fill="#FFFFFF" transform="translate(0,0)"/>
<path d="" fill="#FFFFFF" transform="translate(0,0)"/>
<path d="" fill="#FFFFFF" transform="translate(0,0)"/>
<path d="" fill="#FFFFFF" transform="translate(0,0)"/>
<path d="" fill="#FFFFFF" transform="translate(0,0)"/>
<path d="" fill="#FFFFFF" transform="translate(0,0)"/>
<path d="" fill="#FFFFFF" transform="translate(0,0)"/>
<path d="" fill="#FFFFFF" transform="translate(0,0)"/>
<path d="" fill="#FFFFFF" transform="translate(0,0)"/>
<path d="" fill="#FFFFFF" transform="translate(0,0)"/>
<path d="" fill="#FFFFFF" transform="translate(0,0)"/>
<path d="" fill="#FFFFFF" transform="translate(0,0)"/>
<path d="" fill="#FFFFFF" transform="translate(0,0)"/>
<path d="" fill="#FFFFFF" transform="translate(0,0)"/>
<path d="" fill="#FFFFFF" transform="translate(0,0)"/>
<path d="" fill="#FFFFFF" transform="translate(0,0)"/>
<path d="" fill="#FFFFFF" transform="translate(0,0)"/>
<path d="" fill="#FFFFFF" transform="translate(0,0)"/>
<path d="" fill="#FFFFFF" transform="translate(0,0)"/>
<path d="" fill="#FFFFFF" transform="translate(0,0)"/>
<path d="" fill="#FFFFFF" transform="translate(0,0)"/>
<path d="" fill="#FFFFFF" transform="translate(0,0)"/>
<path d="" fill="#FFFFFF" transform="translate(0,0)"/>
<path d="" fill="#FFFFFF" transform="translate(0,0)"/>
<path d="" fill="#FFFFFF" transform="translate(0,0)"/>
<path d="" fill="#FFFFFF" transform="translate(0,0)"/>
<path d="" fill="#FFFFFF" transform="translate(0,0)"/>
<path d="" fill="#FFFFFF" transform="translate(0,0)"/>
<path d="" fill="#FFFFFF" transform="translate(0,0)"/>
<path d="" fill="#FFFFFF" transform="translate(0,0)"/>
<path d="" fill="#FFFFFF" transform="translate(0,0)"/>
<path d="" fill="#FFFFFF" transform="translate(0,0)"/>
<path d="" fill="#FFFFFF" transform="translate(0,0)"/>
<path d="" fill="#FFFFFF" transform="translate(0,0)"/>
<path d="" fill="#FFFFFF" transform="translate(0,0)"/>
<path d="" fill="#FFFFFF" transform="translate(0,0)"/>
<path d="" fill="#FFFFFF" transform="translate(0,0)"/>
<path d="" fill="#FFFFFF" transform="translate(0,0)"/>
<path d="" fill="#FFFFFF" transform="translate(0,0)"/>
<path d="" fill="#FFFFFF" transform="translate(0,0)"/>
<path d="" fill="#FFFFFF" transform="translate(0,0)"/>
<path d="" fill="#FFFFFF" transform="translate(0,0)"/>
<path d="" fill="#FFFFFF" transform="translate(0,0)"/>
<path d="" fill="#FFFFFF" transform="translate(0,0)"/>
<path d="" fill="#FFFFFF" transform="translate(0,0)"/>
<path d="" fill="#FFFFFF" transform="translate(0,0)"/>
<path d="" fill="#FFFFFF" transform="translate(0,0)"/>
</svg>
